<?xml version="1.0" encoding="utf-8"?>
<!-- Generator: Adobe Illustrator 26.0.3, SVG Export Plug-In . SVG Version: 6.00 Build 0)  -->
<svg version="1.1" id="Layer_1" xmlns="http://www.w3.org/2000/svg" xmlns:xlink="http://www.w3.org/1999/xlink" x="0px" y="0px"
	 viewBox="0 0 2319.6 440.4" style="enable-background:new 0 0 2319.6 440.4;" xml:space="preserve">
<style type="text/css">
	.st0{stroke:#262262;stroke-width:10;stroke-miterlimit:10;}
	.st1{enable-background:new    ;}
	.st2{display:none;enable-background:new    ;}
	.st3{font-family:'Montserrat-ExtraBold';}
	.st4{font-size:275.2387px;}
</style>
<path d="M512,267.2l-70.4,118.4c-8.8,14.7-27.4,20.2-42.7,12.5l-115.2-58c-1.6-0.8-3.3-1.5-5-2V162.6l213.4,56.3
	C513.2,224.3,523.2,248.5,512,267.2z"/>
<path d="M259.4,162.6V338c-1.7,0.5-3.4,1.2-5,2l-115.2,58c-15.3,7.7-34,2.3-42.7-12.5L26.1,267.2C15,248.5,24.9,224.4,46,218.9
	L259.4,162.6z"/>
<path d="M168.1,93.5h91.3V144l-132.3,36l6.2-55.4C135.3,106.9,150.3,93.5,168.1,93.5z"/>
<path d="M411,180l-132.3-36.1V93.5H370c17.8,0,32.8,13.4,34.8,31.1L411,180z"/>
<path d="M343.9,80.6H194.2V60.5c0-12.8,10.3-23.1,23.1-23.1h103.4c12.8,0,23.1,10.3,23.1,23.1L343.9,80.6L343.9,80.6z"/>
<path class="st0" d="M286.5,240.4"/>
<path d="M475.6,313.6"/>
<g class="st1">
	<path d="M943.8,141.5l-62.5,192.7H823l-36.9-117.3l-38.5,117.3h-58.4l-62.5-192.7h56.1l38.8,123l40.7-123h50.1l38.8,124.1
		l40.5-124.1H943.8z"/>
	<path d="M1089.7,251.3v82.8H1041v-19.3c-7.4,14.3-22.3,21.7-44,21.7c-35.8,0-55.6-20.1-55.6-46c0-27.5,20.1-44.6,66.3-44.6h29.7
		c-0.8-15.1-11-23.7-31.7-23.7c-14.3,0-30.3,5-40.5,12.9l-17.6-35.5c17.1-11.3,42.4-17.3,65.8-17.3
		C1061.9,182.5,1089.7,204,1089.7,251.3z M1037.4,286.3v-12.9h-22.6c-16.8,0-22.8,6.1-22.8,15.1c0,8.8,7.2,15.1,19.5,15.1
		C1023.1,303.6,1033.3,298.1,1037.4,286.3z"/>
	<path d="M1122.7,130h52.3v204.2h-52.3V130z"/>
	<path d="M1208.9,130h52.3v204.2h-52.3V130z"/>
	<path d="M1446.7,272.8h-108.4c4.4,15.1,17.3,23.9,36.6,23.9c14.6,0,24.2-4.1,34.4-12.9l27.5,28.6c-14.3,16-35.2,24.2-63.6,24.2
		c-53.1,0-87.5-32.8-87.5-77.3c0-44.9,35-76.8,82-76.8c44,0,79.8,28.1,79.8,77.3C1447.5,263.7,1446.9,268.7,1446.7,272.8z
		 M1337.4,245.3h61.1c-2.8-15.7-14.3-25.6-30.6-25.6S1340.4,229.6,1337.4,245.3z"/>
	<path d="M1574.7,328.1c-9.1,5.8-22.6,8.5-36.3,8.5c-38.3,0-60.6-18.7-60.6-57v-50.1H1456v-39.1h21.7v-38.8h52.3v38.8h34.1v39.1
		h-34.1v49.5c0,11,6.3,17.1,15.7,17.1c5.8,0,11.6-1.7,16-4.7L1574.7,328.1z"/>
	<path d="M1851,212.8c0,43.8-33,71-85.6,71h-33.6v50.4h-54.5V141.5h88.1C1818,141.5,1851,168.8,1851,212.8z M1795.9,212.8
		c0-17.9-11.3-28.3-33.9-28.3h-30.3v56.4h30.3C1784.7,240.9,1795.9,230.4,1795.9,212.8z"/>
	<path d="M1865.3,259.3c0-44.9,35.5-76.8,84.2-76.8c49.3,0,84.2,31.9,84.2,76.8c0,45.1-35,77.3-84.2,77.3
		C1900.8,336.7,1865.3,304.5,1865.3,259.3z M1980.9,259.3c0-22.6-13.5-35.2-31.4-35.2c-17.6,0-31.4,12.7-31.4,35.2
		c0,22.8,13.8,35.8,31.4,35.8C1967.4,295.1,1980.9,282.2,1980.9,259.3z"/>
	<path d="M2157.9,182.5v47.1c-4.7-0.5-8-0.8-11.8-0.8c-21.2,0-35.8,10.7-35.8,36.9v68.5H2058V185h49.8v17.9
		C2118.5,189.4,2135.9,182.5,2157.9,182.5z"/>
	<path d="M2287,328.1c-9.1,5.8-22.6,8.5-36.3,8.5c-38.3,0-60.6-18.7-60.6-57v-50.1h-21.7v-39.1h21.7v-38.8h52.3v38.8h34.1v39.1
		h-34.1v49.5c0,11,6.3,17.1,15.7,17.1c5.8,0,11.6-1.7,16-4.7L2287,328.1z"/>
</g>
<text transform="matrix(1 0 0 1 622.3346 334.1782)" class="st2 st3 st4">Wallet Port</text>
</svg>
