<?xml version="1.0" encoding="utf-8"?>
<!-- Generator: Adobe Illustrator 26.0.2, SVG Export Plug-In . SVG Version: 6.00 Build 0)  -->
<svg version="1.1" id="Layer_1" xmlns="http://www.w3.org/2000/svg" xmlns:xlink="http://www.w3.org/1999/xlink" x="0px" y="0px"
	 viewBox="0 0 2319.6 440.4" style="enable-background:new 0 0 2319.6 440.4;" xml:space="preserve">
<style type="text/css">
	.st0{stroke:#262262;stroke-width:10;stroke-miterlimit:10;}
	.st1{font-family:'Montserrat-ExtraBold';}
	.st2{font-size:275.2387px;}
</style>
<path d="M512,267.2l-70.4,118.4c-8.8,14.7-27.4,20.2-42.7,12.5l-115.2-58c-1.6-0.8-3.3-1.5-5-2V162.6l213.4,56.3
	C513.2,224.3,523.2,248.5,512,267.2z"/>
<path d="M259.4,162.6V338c-1.7,0.5-3.4,1.2-5,2l-115.2,58c-15.3,7.7-34,2.3-42.7-12.5L26.1,267.2c-11.1-18.7-1.2-42.8,19.9-48.3
	L259.4,162.6z"/>
<path d="M168.1,93.5h91.3V144l-132.3,36l6.2-55.4C135.3,106.9,150.3,93.5,168.1,93.5z"/>
<path d="M411,180l-132.3-36.1V93.5H370c17.8,0,32.8,13.4,34.8,31.1L411,180z"/>
<path d="M343.9,80.6H194.2V60.5c0-12.8,10.3-23.1,23.1-23.1h103.4c12.8,0,23.1,10.3,23.1,23.1V80.6z"/>
<path class="st0" d="M286.5,240.4"/>
<path d="M475.6,313.6"/>
<text transform="matrix(1 0 0 1 622.3346 334.178)" class="st1 st2">Wallet Port</text>
</svg>
