<?xml version="1.0" encoding="utf-8"?>
<!-- Generator: Adobe Illustrator 26.0.3, SVG Export Plug-In . SVG Version: 6.00 Build 0)  -->
<svg version="1.1" id="Layer_1" xmlns="http://www.w3.org/2000/svg" xmlns:xlink="http://www.w3.org/1999/xlink" x="0px" y="0px"
	 viewBox="0 0 495.1 440.4" style="enable-background:new 0 0 495.1 440.4;" xml:space="preserve">
<style type="text/css">
	.st0{stroke:#262262;stroke-width:10;stroke-miterlimit:10;}
</style>
<path d="M490.5,267.2l-70.4,118.4c-8.8,14.7-27.4,20.2-42.7,12.5l-115.2-58c-1.6-0.8-3.3-1.5-5-2V162.6l213.4,56.3
	C491.7,224.3,501.7,248.5,490.5,267.2z"/>
<path d="M237.9,162.6V338c-1.7,0.5-3.4,1.2-5,2l-115.2,58c-15.3,7.7-34,2.3-42.7-12.5L4.6,267.2c-11.1-18.7-1.2-42.8,19.9-48.3
	L237.9,162.6z"/>
<path d="M146.6,93.5h91.3V144l-132.3,36l6.2-55.4C113.8,106.9,128.8,93.5,146.6,93.5z"/>
<path d="M389.5,180l-132.3-36.1V93.5h91.3c17.8,0,32.8,13.4,34.8,31.1L389.5,180z"/>
<path d="M322.4,80.6H172.7V60.5c0-12.8,10.3-23.1,23.1-23.1h103.4c12.8,0,23.1,10.3,23.1,23.1L322.4,80.6L322.4,80.6z"/>
<path class="st0" d="M265,240.4"/>
<path d="M454.1,313.6"/>
<text transform="matrix(1 0 0 1 600.835 334.1782)" style="display:none;enable-background:new    ; font-family:'Montserrat-ExtraBold'; font-size:275.2387px;">Wallet Port</text>
</svg>
